<svg width="63" height="82" viewBox="0 0 63 82" fill="none" xmlns="http://www.w3.org/2000/svg">
<path d="M0.000440956 73.677L62.7617 73.677L62.7617 81.4776L0.000440615 81.4776L0.000440956 73.677Z" fill="white"/>
<path d="M0.000452008 64.4669L44.3663 64.4669L44.3663 72.2675L0.000451667 72.2675L0.000452008 64.4669ZM62.7617 72.2675L45.7634 72.2675L45.7634 64.4669L62.7617 64.4669L62.7617 72.2675Z" fill="white"/>
<path d="M0.00046063 63.0345L0.000460971 55.2339L55.3031 55.2339L55.3031 53.8368L0.000461032 53.8368L0.000461373 46.0362L55.3031 46.0362L55.3031 44.6391L0.000461434 44.6391L0.000461775 36.8385L62.7617 36.8385L62.7617 59.1924C62.7617 60.2791 62.3736 61.1717 61.5974 61.8702C60.8989 62.6464 60.0063 63.0345 58.9196 63.0345L0.00046063 63.0345Z" fill="white"/>
<path d="M0.000461032 35.4165L0.000461607 22.2603C0.000461654 21.1736 0.349742 20.2422 1.0483 19.4661C1.82448 18.7675 2.75589 18.4182 3.84254 18.4182L31.5521 18.4182C32.6387 18.4182 33.5313 18.7675 34.2299 19.4661C35.0061 20.2422 35.3942 21.1736 35.3942 22.2603L35.3942 27.6159L55.3031 27.6159L55.3031 26.2188L36.7913 26.2188L36.7913 18.4182L58.8032 18.4182C59.8899 18.4182 60.8213 18.7675 61.5974 19.4661C62.3736 20.2422 62.7617 21.1736 62.7617 22.2603L62.7617 31.5744C62.7617 32.6611 62.3736 33.5537 61.5974 34.2522C60.8213 35.0284 59.8899 35.4165 58.8032 35.4165L0.000461032 35.4165ZM7.80105 26.2188L7.80105 27.6159L27.5936 27.6159L27.5936 26.2188L7.80105 26.2188Z" fill="white"/>
<path d="M62.8203 9.48149L62.8203 17.2821L3.84296 16.9983C2.75631 16.9983 1.8637 16.6102 1.16514 15.834C0.388965 15.0578 0.000877687 14.1264 0.000877735 13.0398L0.000878137 3.84208C0.000878184 2.75543 0.388965 1.82401 1.16514 1.04784C1.8637 0.349277 2.75631 -2.62548e-06 3.84296 -2.57798e-06L16.9992 -2.00291e-06L16.9992 7.80058L7.80146 7.80058L7.80146 9.1977L18.3963 9.1977L18.3963 3.84208C18.3963 2.75543 18.7456 1.82402 19.4441 1.04784C20.2203 0.349278 21.1517 -1.82139e-06 22.2384 -1.77389e-06L62.8203 0.283788L62.8203 8.08437L26.1969 7.80058L26.1969 9.1977L62.8203 9.48149Z" fill="white"/>
</svg>